<?xml version="1.0" encoding="UTF-8"?>
<svg width="512" height="512" viewBox="0 0 24 24" xmlns="http://www.w3.org/2000/svg">
    <!-- Monitor -->
    <path fill="#4A90E2" d="M20 3H4c-1.1 0-2 .9-2 2v11c0 1.1.9 2 2 2h16c1.1 0 2-.9 2-2V5c0-1.1-.9-2-2-2zm0 13H4V5h16v11z"/>
    <!-- Stand -->
    <path fill="#4A90E2" d="M12 17h-2l-1 4h6l-1-4h-2z"/>
    <!-- Person -->
    <path fill="#4A90E2" d="M15 7.5c0 .83-.67 1.5-1.5 1.5S12 8.33 12 7.5 12.67 6 13.5 6s1.5.67 1.5 1.5z"/>
    <path fill="#4A90E2" d="M12 9c-1.1 0-2 .9-2 2v2h4v-2c0-1.1-.9-2-2-2z"/>
    <!-- Code symbols -->
    <path fill="#4A90E2" d="M8 8l-1 1 1 1M16 8l1 1-1 1"/>
</svg>
</svg>
