<?xml version="1.0" encoding="UTF-8"?>
<svg viewBox="0 0 48 48" xmlns="http://www.w3.org/2000/svg">
  <path fill="#000" d="M24,44c-3.3,0-6-2.7-6-6v-3h4v3c0,1.1,0.9,2,2,2s2-0.9,2-2V24c0-1.1-0.9-2-2-2s-2,0.9-2,2h-4c0-3.3,2.7-6,6-6s6,2.7,6,6v14C30,41.3,27.3,44,24,44z"/>
  <path fill="#000" d="M36,16H12c-2.2,0-4-1.8-4-4s1.8-4,4-4h24c2.2,0,4,1.8,4,4S38.2,16,36,16z M12,12h24v-2H12V12z"/>
  <path fill="#000" d="M40,24H8c-2.2,0-4-1.8-4-4s1.8-4,4-4h32c2.2,0,4,1.8,4,4S42.2,24,40,24z M8,20h32v-2H8V20z"/>
</svg>
