<?xml version="1.0" encoding="UTF-8"?>
<svg viewBox="0 0 48 48" xmlns="http://www.w3.org/2000/svg">
  <path fill="#F7DF1E" d="M6,6h36v36H6V6z"/>
  <path d="M29.5,34.3c0.7,1.1,1.5,2.1,3.1,2.1c1.3,0,2.1-0.6,2.1-1.5c0-1.1-0.8-1.5-2.4-2.1l-0.8-0.4c-2.4-1-4-2.3-4-5c0-2.5,1.9-4.4,4.9-4.4c2.1,0,3.7,0.7,4.8,2.7l-2.6,1.7c-0.6-1.1-1.2-1.5-2.2-1.5c-1,0-1.6,0.6-1.6,1.5c0,1,0.6,1.4,2.1,2l0.8,0.3c2.8,1.2,4.4,2.4,4.4,5.2c0,3-2.3,4.6-5.5,4.6c-3.1,0-5-1.5-6-3.4L29.5,34.3z M19.1,34.6c0.5,0.9,1,1.7,2,1.7c1,0,1.6-0.4,1.6-1.9V23.7h3.2v10.8c0,3.3-1.9,4.8-4.8,4.8c-2.5,0-4-1.3-4.7-2.9L19.1,34.6z"/>
</svg>
