<?xml version="1.0" encoding="UTF-8"?>
<svg viewBox="0 0 48 48" xmlns="http://www.w3.org/2000/svg">
  <path fill="#000000" d="M44,20h-4v-4c0-2.2-1.8-4-4-4H12c-2.2,0-4,1.8-4,4v4H4c-2.2,0-4,1.8-4,4v16c0,2.2,1.8,4,4,4h40c2.2,0,4-1.8,4-4V24C48,21.8,46.2,20,44,20z M12,16h24v4H12V16z M44,40H4V24h40V40z"/>
  <circle fill="#000000" cx="12" cy="32" r="2"/>
  <circle fill="#000000" cx="20" cy="32" r="2"/>
  <circle fill="#000000" cx="28" cy="32" r="2"/>
  <circle fill="#000000" cx="36" cy="32" r="2"/>
</svg>
