<?xml version="1.0" encoding="UTF-8"?>
<svg viewBox="0 0 48 48" xmlns="http://www.w3.org/2000/svg">
  <path fill="#2196F3" d="M24,5C14.1,5,6,13.1,6,23v0.5l7,14.4c0.3,0.7,1,1.1,1.8,1.1h18.5c0.8,0,1.5-0.4,1.8-1.1l7-14.4V23C42,13.1,33.9,5,24,5z"/>
  <path fill="#FFFFFF" d="M24,15.5c-4.7,0-8.5,3.8-8.5,8.5s3.8,8.5,8.5,8.5s8.5-3.8,8.5-8.5S28.7,15.5,24,15.5z M24,29.5c-3,0-5.5-2.5-5.5-5.5s2.5-5.5,5.5-5.5s5.5,2.5,5.5,5.5S27,29.5,24,29.5z"/>
  <path fill="#FFFFFF" d="M24,21.5c-1.4,0-2.5,1.1-2.5,2.5s1.1,2.5,2.5,2.5s2.5-1.1,2.5-2.5S25.4,21.5,24,21.5z"/>
</svg>
