<?xml version="1.0" encoding="UTF-8"?>
<svg viewBox="0 0 48 48" xmlns="http://www.w3.org/2000/svg">
  <path fill="#00D8FF" d="M24,34C11.1,34,1,29.6,1,24c0-5.6,10.1-10,23-10c12.9,0,23,4.4,23,10C47,29.6,36.9,34,24,34z M24,16c-12.6,0-21,4.1-21,8c0,3.9,8.4,8,21,8s21-4.1,21-8C45,20.1,36.6,16,24,16z"/>
  <path fill="#00D8FF" d="M15.1,44.6c-1,0-1.8-0.2-2.6-0.7C7.6,41.1,8.9,30.2,15.3,19c3-5.2,6.7-9.6,10.3-12.4c3.9-3,7.4-3.9,9.8-2.5c2.5,1.4,3.4,4.9,2.8,9.8c-0.6,4.6-2.6,10-5.6,15.2c-3,5.2-6.7,9.6-10.3,12.4C19.7,43.5,17.2,44.6,15.1,44.6z M32.9,5.4c-1.6,0-3.7,0.9-6,2.7c-3.4,2.7-6.9,6.9-9.8,11.9c-6.5,11.4-6.6,20.7-3.8,22.4c1.7,1,5.1,0.2,9.7-2.7c3.4-2.7,6.9-6.9,9.8-11.9c2.8-4.9,4.6-9.9,5.1-14.3c0.5-4-0.1-6.8-1.8-7.8C34.9,5.6,33.9,5.4,32.9,5.4z"/>
  <path fill="#00D8FF" d="M33,44.6c-5,0-12.2-6.1-17.6-15.6C8.9,17.8,7.6,6.9,12.5,4.1c2.4-1.4,5.9-0.5,9.8,2.5c3.7,2.9,7.4,7.2,10.3,12.4c2.9,5.2,4.9,10.6,5.6,15.2c0.7,4.9-0.3,8.3-2.8,9.8C34.7,44.4,33.9,44.6,33,44.6z M15.1,5.4c-1,0-2,0.2-2.7,0.7C10,7.3,9.3,10,9.9,14c0.5,4.3,2.4,9.4,5.1,14.3c6.5,11.4,13.7,16.9,17.5,14.8c1.7-1,2.3-3.8,1.8-7.8c-0.5-4.4-2.4-9.4-5.1-14.3c-2.8-5-6.4-9.2-9.8-11.9C17.8,6.3,16.2,5.4,15.1,5.4z"/>
</svg>
